<?xml version="1.0" encoding="utf-8"?>
<!-- Generator: Adobe Illustrator 22.1.0, SVG Export Plug-In . SVG Version: 6.00 Build 0)  -->
<svg version="1.1" id="Layer_1" xmlns="http://www.w3.org/2000/svg" xmlns:xlink="http://www.w3.org/1999/xlink" x="0px" y="0px"
	 viewBox="0 0 254 254" style="enable-background:new 0 0 254 254;" xml:space="preserve">
<style type="text/css">
	.st0{fill:#035493;}
</style>
<path class="st0" d="M209,155c-5.2,0-9.4,4.2-9.4,9.4c0,5.2,4.2,9.4,9.4,9.4c0.5,0,0.9,0,1.4-0.1c2,6.6,1.2,13.3-2.4,18.6
	c-3.7,5.5-10,8.7-17.1,8.7c-6,0-12.4-1.2-19.2-3.4c1.6-4,3.1-8.3,4.4-12.9c2.4-8.4,4.3-17.5,5.6-27.1c3.9-1.2,6.7-4.8,6.7-9
	c0-5.2-4.2-9.4-9.4-9.4c-5.2,0-9.4,4.2-9.4,9.4c0,4,2.5,7.4,6,8.8c-0.3,2.1-0.6,4.2-0.9,6.2c-9.3,2-17.2,2.8-36.2,2.8
	c-5.5,0-10.9-0.2-16.2-0.6c-3.8-3.4-7.6-7-11.5-10.9c-3.8-3.8-7.5-7.7-10.9-11.7c-0.4-5.2-0.5-10.6-0.5-16c0-5.4,0.2-10.7,0.5-16
	c3.5-4,7.1-7.9,10.9-11.7c3.8-3.8,7.7-7.5,11.7-10.9c5.2-0.4,10.6-0.5,16-0.5c5.9,0,11.7,0.2,17.4,0.6c0,0,0,0,0.1,0
	c6.4,0.5,12.7,1.2,18.8,2.2c0.3,1.9,0.6,3.9,0.9,5.9c-3.5,1.4-6,4.8-6,8.8c0,5.2,4.2,9.4,9.4,9.4c5.2,0,9.4-4.2,9.4-9.4
	c0-4.3-2.9-7.9-6.8-9.1c-1.3-9.6-3.1-18.7-5.6-27c-1.2-4.3-2.6-8.3-4.1-12.1c1.2-0.4,2.4-0.8,3.6-1.2c6.2-2,11.8-2.9,16.6-2.9
	c0.1,0,0.3,0,0.4,0c0,0,0,0,0,0c6,0,10.6,1.9,13.6,5.6c3.8,4.7,4.9,12.4,3.1,21.7c-5.1,0.1-9.2,4.3-9.2,9.4c0,5.2,4.2,9.4,9.4,9.4
	c5.2,0,9.4-4.2,9.4-9.4c0-3.1-1.5-5.9-3.9-7.6c1.1-5.4,1.3-10.4,0.7-14.8c-0.6-5-2.3-9.2-5-12.6c-4.1-5.2-10.5-7.9-18.3-7.9
	c-0.2,0-0.3,0-0.5,0c-6.7,0-14.4,1.6-22.6,4.7c-0.9-2.1-1.9-4-3-5.9c-3.8-6.9-8-12.2-12.6-16c-5-4.1-10.2-6.1-15.7-6.1
	c-12,0-23.1,10.1-31.4,28.4c-0.7-0.2-1.3-0.5-1.9-0.7c-8.5-2.9-16.1-4.3-22.7-4c-7.2,0.3-13,2.5-17,6.5c-8.4,8.4-9.2,23.2-2.3,41.8
	c-18.1,8.3-28,19.3-28,31.2s9.9,22.9,28,31.2c-6.9,18.7-6.1,33.4,2.3,41.8c4.1,4.1,9.7,6.4,16.6,6.8c0.8,0.1,1.7,0.1,2.6,0.1
	c5.8,0,12.2-1.2,19.3-3.5c1.1-0.4,2.2-0.7,3.3-1.1c8.3,18.1,19.3,28,31.2,28c5.4,0,10.7-2.1,15.7-6.1c4.6-3.7,8.8-9.1,12.6-16
	c0.9-1.6,1.8-3.3,2.6-5.1c7.6,2.6,14.8,3.9,21.6,3.9c9.2,0,17.3-4.1,22.2-11.3c2.4-3.6,3.9-7.8,4.4-12.2c0.4-4.2-0.1-8.4-1.6-12.6
	c1.6-1.7,2.6-4,2.6-6.5C218.4,159.3,214.2,155,209,155z M209.6,93.4c-1.8,0-3.3-1.5-3.3-3.3c0-1.8,1.5-3.3,3.3-3.3
	c1.8,0,3.3,1.5,3.3,3.3C213,91.9,211.5,93.4,209.6,93.4z M178.9,145.2c1.8,0,3.3,1.5,3.3,3.3c0,1.7-1.2,3-2.8,3.3
	c-0.1,0-0.1,0-0.2,0c-0.3,0-0.6,0-0.9,0c-1.6-0.3-2.8-1.6-2.8-3.3C175.6,146.7,177.1,145.2,178.9,145.2z M166,195.5
	c-4.2-1.8-8.5-3.9-12.9-6.5c-3.3-1.9-6.6-4.1-10-6.4c4.3-3.1,8.6-6.5,12.9-10.1c0.1-0.1,0.3-0.2,0.4-0.4c6.4-0.4,11.5-1,17-2
	C171.5,179.3,169,188,166,195.5z M138.4,172.4c2.9,0,5.6,0,8.1-0.1c-2.8,2.2-5.7,4.4-8.5,6.4c-2.7-2-5.5-4.2-8.2-6.5
	C132.6,172.4,135.5,172.4,138.4,172.4z M110.4,194.6c-2.9-7.4-5.3-15.7-7.1-24.8c5.3,0.8,10.8,1.5,16.4,1.9
	c4.4,3.9,8.7,7.5,12.9,10.7C125.1,187.4,117.6,191.5,110.4,194.6z M133,72.3c-4.4,3.2-8.7,6.6-13,10.3c-5.7,0.4-11.3,1.1-16.7,1.9
	c1.8-8.9,4.1-17.1,7-24.4C117.6,63.3,125.3,67.4,133,72.3z M93.9,108.8c-3.7,4.3-7.2,8.7-10.4,13.1c-5.2-7.7-9.3-15.3-12.5-22.6
	c7.4-2.9,15.7-5.3,24.8-7.1C94.9,97.5,94.3,103.1,93.9,108.8z M93.9,145.6c0.4,5.7,1.1,11.3,1.9,16.6c-9.1-1.8-17.4-4.2-24.8-7.1
	c3.2-7.3,7.4-14.9,12.5-22.6C86.7,136.9,90.1,141.3,93.9,145.6z M106.4,159.2c2,2,3.9,3.8,5.8,5.7c-3.4-0.4-6.8-0.9-10.1-1.4
	c-0.6-3.3-1-6.7-1.4-10.2C102.6,155.3,104.5,157.2,106.4,159.2z M93.3,135.4c-2.1-2.7-4.2-5.4-6.2-8.2c2-2.7,4-5.5,6.2-8.2
	c-0.1,2.7-0.1,5.4-0.1,8.2C93.2,129.9,93.2,132.7,93.3,135.4z M106.4,95.2c-1.9,1.9-3.8,3.9-5.7,5.9c0.4-3.4,0.9-6.8,1.4-10.2
	c3.3-0.6,6.7-1,10.2-1.4C110.3,91.4,108.3,93.3,106.4,95.2z M130.2,82.1c2.7-2.2,5.4-4.2,8.2-6.2c2.8,2,5.7,4,8.5,6.2
	c-2.8-0.1-5.6-0.1-8.4-0.1C135.6,82,132.9,82,130.2,82.1z M178.9,109c-1.8,0-3.3-1.5-3.3-3.3c0-1.6,1.2-3,2.8-3.3
	c0.3,0.1,0.6,0.1,0.9,0c0.1,0,0.1,0,0.2,0c1.6,0.3,2.8,1.6,2.8,3.3C182.3,107.5,180.8,109,178.9,109z M173.5,84.6
	c-5.3-0.8-10.7-1.4-16.1-1.9c-4.5-3.7-9-7.2-13.6-10.5c3.8-2.5,7.6-4.9,11.4-7c3.8-2.1,7.5-4,11.2-5.5
	C169.2,67.1,171.6,75.5,173.5,84.6z M124.1,37c4.6-4.6,9.4-7,14.3-7c4,0,8,1.6,11.8,4.7c4,3.2,7.7,8,11.1,14.2
	c0.9,1.6,1.8,3.4,2.6,5.2c-8.2,3.6-16.9,8.4-25.6,14.4c-8.7-5.7-17.4-10.5-25.7-14C116.1,47.1,119.9,41.2,124.1,37z M69.6,58.5
	c6-6,17.9-6.4,33.4-1.1c0.5,0.2,1,0.4,1.5,0.5c-3.2,8.3-5.8,17.7-7.7,27.7c-10.3,1.9-19.8,4.6-28.2,7.9c-2.8-7.5-4.2-14.3-4.2-20.1
	C64.5,67,66.2,61.9,69.6,58.5z M41.2,127.2c0-4.9,2.3-9.6,7-14.3c4.2-4.1,9.9-7.9,17.2-11.3c3.6,8.3,8.4,16.9,14.3,25.5
	c-5.9,8.6-10.7,17.2-14.3,25.5c-7.3-3.4-13-7.2-17.2-11.3C43.5,136.9,41.2,132.1,41.2,127.2z M102,197.9
	c-14.8,4.9-26.3,4.2-32.4-1.9c-3.4-3.4-5.2-8.5-5.1-15c0-5.9,1.4-12.6,4.2-20.1c8.4,3.3,17.9,6,28.2,7.9c1.9,10.3,4.6,19.8,7.9,28.2
	C103.9,197.3,102.9,197.6,102,197.9z M161.3,205.4c-3.4,6.2-7.2,11-11.1,14.3c-3.9,3.2-7.8,4.8-11.8,4.8c-4.9,0-9.6-2.3-14.3-7
	c-4.1-4.2-7.9-9.9-11.3-17.2c8-3.5,16.5-8.2,25-14c4.1,3,8.2,5.6,12.2,8c4.6,2.7,9.1,5,13.5,6.8C162.8,202.6,162.1,204,161.3,205.4z
	 M205.6,164.5c0-1.8,1.5-3.3,3.3-3.3c1.8,0,3.3,1.5,3.3,3.3c0,1.8-1.5,3.3-3.3,3.3C207.1,167.8,205.6,166.3,205.6,164.5z"/>
</svg>
